<?xml version="1.0" standalone="no"?>
<!DOCTYPE svg PUBLIC "-//W3C//DTD SVG 20010904//EN"
 "http://www.w3.org/TR/2001/REC-SVG-20010904/DTD/svg10.dtd">
<svg version="1.0" xmlns="http://www.w3.org/2000/svg"
 width="1301.000000pt" height="748.000000pt" viewBox="0 0 1301.000000 748.000000"
 preserveAspectRatio="xMidYMid meet">
<metadata>
Created by potrace 1.16, written by Peter Selinger 2001-2019
</metadata>
<g transform="translate(0.000000,748.000000) scale(0.100000,-0.100000)"
fill="#000000" stroke="none">
<path d="M155 7446 c-92 -43 -166 -190 -152 -304 3 -26 19 -88 35 -138 27 -80
41 -117 99 -254 81 -193 263 -506 381 -654 88 -111 100 -124 222 -247 314
-317 719 -571 1095 -686 140 -42 268 -65 670 -118 105 -14 217 -30 250 -35 33
-5 78 -11 100 -14 90 -10 484 -67 539 -77 72 -13 115 -40 150 -94 39 -62 56
-120 56 -189 -1 -115 -26 -189 -88 -253 -60 -61 -101 -69 -301 -55 -91 7 -224
12 -296 12 -71 0 -182 5 -245 10 -63 5 -205 10 -315 11 -223 2 -236 0 -294
-66 -38 -43 -56 -86 -72 -166 -10 -53 -9 -74 10 -172 26 -128 48 -192 86 -241
35 -46 101 -76 169 -76 67 0 93 -9 142 -52 49 -44 85 -126 92 -210 5 -77 -7
-138 -48 -223 -15 -33 -44 -94 -63 -135 -86 -187 -232 -501 -262 -565 -35 -73
-88 -187 -135 -290 -15 -33 -51 -109 -79 -168 -28 -60 -51 -110 -51 -112 0 -1
-23 -52 -51 -111 -73 -156 -117 -250 -149 -319 -15 -33 -43 -94 -62 -135 -20
-41 -47 -100 -61 -130 -14 -30 -44 -95 -67 -145 -23 -49 -55 -118 -70 -151
-42 -90 -107 -228 -150 -319 -92 -193 -170 -358 -170 -361 0 -2 -20 -45 -45
-97 -25 -52 -45 -100 -45 -106 0 -8 337 -11 1239 -11 l1240 0 6 57 c15 140 46
450 66 653 5 58 14 141 19 185 5 44 12 107 15 140 3 33 10 105 16 160 5 55 16
165 24 245 28 285 45 456 54 540 6 47 15 132 21 190 19 185 30 251 48 294 13
28 62 81 152 166 74 69 172 161 220 205 47 44 213 197 369 339 156 143 293
269 305 280 12 12 42 39 66 60 25 21 74 67 110 100 36 34 166 154 290 268 345
316 336 307 366 373 26 60 26 61 20 228 -9 212 1 255 79 333 44 45 58 52 101
58 27 3 355 8 729 12 749 7 714 10 787 -55 21 -18 47 -57 63 -95 29 -68 29
-89 9 -311 -7 -82 11 -159 53 -221 14 -21 89 -97 167 -167 77 -70 166 -151
197 -180 31 -29 76 -70 100 -92 67 -60 286 -261 359 -329 36 -34 86 -79 110
-100 44 -39 222 -201 264 -241 11 -11 152 -139 311 -284 160 -145 297 -273
306 -285 59 -76 69 -118 93 -376 9 -91 20 -203 25 -250 10 -88 23 -211 41
-385 5 -55 16 -163 24 -240 8 -77 20 -196 26 -265 6 -69 16 -149 21 -179 5
-30 9 -75 9 -99 0 -25 4 -73 9 -106 5 -34 15 -115 21 -181 7 -66 18 -175 26
-242 8 -67 14 -140 14 -162 l0 -41 1245 0 c1181 0 1244 1 1239 18 -9 26 -26
64 -89 197 -31 66 -85 181 -120 255 -35 74 -89 189 -120 255 -32 66 -70 147
-85 180 -15 33 -48 104 -74 157 -25 53 -59 125 -75 160 -16 35 -53 115 -84
178 -30 63 -69 147 -87 185 -18 39 -55 117 -82 175 -28 58 -63 132 -78 165
-15 33 -58 122 -94 198 -36 76 -66 139 -66 141 0 2 -33 72 -74 157 -40 85 -87
183 -103 219 -17 36 -68 144 -113 240 -45 96 -99 211 -120 255 -56 121 -63
148 -58 239 5 92 33 159 90 213 41 39 76 53 135 53 99 0 174 44 212 125 30 65
71 244 71 312 0 137 -72 257 -168 282 -36 10 -113 8 -925 -19 -363 -12 -360
-12 -427 52 -49 47 -73 110 -78 208 -5 99 16 169 69 233 50 60 75 68 284 88
104 10 233 23 285 29 301 35 616 92 825 150 44 12 94 25 110 30 58 16 190 58
235 75 564 213 946 491 1281 930 116 153 277 440 349 625 12 30 28 69 36 85
31 67 84 249 84 289 0 70 -44 192 -83 230 -78 75 -149 80 -277 19 -47 -22
-107 -51 -135 -63 -27 -12 -68 -31 -91 -41 -22 -10 -65 -27 -95 -39 -30 -11
-63 -24 -74 -29 -74 -33 -320 -120 -490 -175 -308 -98 -926 -268 -1160 -317
-27 -6 -66 -15 -85 -19 -255 -59 -702 -143 -955 -180 -33 -4 -107 -15 -165
-24 -131 -19 -404 -52 -625 -75 -93 -10 -140 -14 -430 -41 -222 -21 -772 -51
-1270 -70 -343 -13 -818 -13 -1145 0 -713 29 -773 32 -1210 66 -293 22 -401
33 -760 74 -259 30 -254 29 -400 51 -219 32 -287 43 -460 74 -47 8 -112 20
-145 26 -63 11 -133 25 -200 40 -22 4 -96 20 -165 35 -136 28 -590 138 -655
159 -22 7 -85 25 -140 39 -55 15 -111 31 -125 36 -14 5 -72 23 -130 40 -161
49 -323 100 -345 110 -11 5 -65 24 -120 43 -55 19 -139 53 -187 76 -48 22 -89
41 -92 41 -2 0 -46 20 -97 43 -52 24 -116 54 -144 67 -27 12 -77 35 -110 50
-33 15 -82 38 -110 50 -62 28 -130 35 -170 16z"/>
<path d="M6285 2184 c-189 -25 -258 -44 -400 -110 -224 -105 -420 -298 -529
-524 -44 -90 -62 -139 -89 -245 -19 -75 -20 -116 -24 -692 l-4 -613 1260 0
1261 0 0 578 c0 555 -3 625 -31 742 -81 332 -308 608 -624 759 -86 41 -134 57
-265 87 -63 14 -483 28 -555 18z"/>
</g>
</svg>
