<svg id="my-svg" width="100%" xmlns="http://www.w3.org/2000/svg" xmlns:xlink="http://www.w3.org/1999/xlink" class="flowchart" style="max-width: 769.562px; background-color: rgb(250, 250, 247);" viewBox="0 0 769.5625 1156.966552734375" role="graphics-document document" aria-roledescription="flowchart-v2"><style>#my-svg{font-size:16px;fill:#1A1816;}@keyframes edge-animation-frame{from{stroke-dashoffset:0;}}@keyframes dash{to{stroke-dashoffset:0;}}#my-svg .edge-animation-slow{stroke-dasharray:9,5!important;stroke-dashoffset:900;animation:dash 50s linear infinite;stroke-linecap:round;}#my-svg .edge-animation-fast{stroke-dasharray:9,5!important;stroke-dashoffset:900;animation:dash 20s linear infinite;stroke-linecap:round;}#my-svg .error-icon{fill:hsl(240, 23.0769230769%, 100%);}#my-svg .error-text{fill:rgb(0, 0, 0);stroke:rgb(0, 0, 0);}#my-svg .edge-thickness-normal{stroke-width:1px;}#my-svg .edge-thickness-thick{stroke-width:3.5px;}#my-svg .edge-pattern-solid{stroke-dasharray:0;}#my-svg .edge-thickness-invisible{stroke-width:0;fill:none;}#my-svg .edge-pattern-dashed{stroke-dasharray:3;}#my-svg .edge-pattern-dotted{stroke-dasharray:2;}#my-svg .marker{fill:#8A8279;stroke:#8A8279;}#my-svg .marker.cross{stroke:#8A8279;}#my-svg svg{font-size:16px;}#my-svg p{margin:0;}#my-svg .label{color:#1A1816;}#my-svg .cluster-label text{fill:rgb(0, 0, 0);}#my-svg .cluster-label span{color:rgb(0, 0, 0);}#my-svg .cluster-label span p{background-color:transparent;}#my-svg .label text,#my-svg span{fill:#1A1816;color:#1A1816;}#my-svg .node rect,#my-svg .node circle,#my-svg .node ellipse,#my-svg .node polygon,#my-svg .node path{fill:#FAFAF7;stroke:#3D5A7A;stroke-width:1px;}#my-svg .rough-node .label text,#my-svg .node .label text,#my-svg .image-shape .label,#my-svg .icon-shape .label{text-anchor:middle;}#my-svg .node .katex path{fill:#000;stroke:#000;stroke-width:1px;}#my-svg .rough-node .label,#my-svg .node .label,#my-svg .image-shape .label,#my-svg .icon-shape .label{text-align:center;}#my-svg .node.clickable{cursor:pointer;}#my-svg .root .anchor path{fill:#8A8279!important;stroke-width:0;stroke:#8A8279;}#my-svg .arrowheadPath{fill:#0b0b0b;}#my-svg .edgePath .path{stroke:#8A8279;stroke-width:2.0px;}#my-svg .flowchart-link{stroke:#8A8279;fill:none;}#my-svg .edgeLabel{background-color:hsl(-60, 23.0769230769%, 97.4509803922%);text-align:center;}#my-svg .edgeLabel p{background-color:hsl(-60, 23.0769230769%, 97.4509803922%);}#my-svg .edgeLabel rect{opacity:0.5;background-color:hsl(-60, 23.0769230769%, 97.4509803922%);fill:hsl(-60, 23.0769230769%, 97.4509803922%);}#my-svg .labelBkg{background-color:rgba(250.0000000001, 247.0000000001, 250.0000000001, 0.5);}#my-svg .cluster rect{fill:hsl(240, 23.0769230769%, 100%);stroke:hsl(240, 0%, 90%);stroke-width:1px;}#my-svg .cluster text{fill:rgb(0, 0, 0);}#my-svg .cluster span{color:rgb(0, 0, 0);}#my-svg div.mermaidTooltip{position:absolute;text-align:center;max-width:200px;padding:2px;font-size:12px;background:hsl(240, 23.0769230769%, 100%);border:1px solid hsl(240, 0%, 90%);border-radius:2px;pointer-events:none;z-index:100;}#my-svg .flowchartTitleText{text-anchor:middle;font-size:18px;fill:#1A1816;}#my-svg rect.text{fill:none;stroke-width:0;}#my-svg .icon-shape,#my-svg .image-shape{background-color:hsl(-60, 23.0769230769%, 97.4509803922%);text-align:center;}#my-svg .icon-shape p,#my-svg .image-shape p{background-color:hsl(-60, 23.0769230769%, 97.4509803922%);padding:2px;}#my-svg .icon-shape rect,#my-svg .image-shape rect{opacity:0.5;background-color:hsl(-60, 23.0769230769%, 97.4509803922%);fill:hsl(-60, 23.0769230769%, 97.4509803922%);}#my-svg .label-icon{display:inline-block;height:1em;overflow:visible;vertical-align:-0.125em;}#my-svg .node .label-icon path{fill:currentColor;stroke:revert;stroke-width:revert;}#my-svg :root{--mermaid-font-family:"trebuchet ms",verdana,arial,sans-serif;}#my-svg .tier1&gt;*{fill:#FAFAF7!important;stroke:#3D5A7A!important;color:#1A1816!important;}#my-svg .tier1 span{fill:#FAFAF7!important;stroke:#3D5A7A!important;color:#1A1816!important;}#my-svg .tier1 tspan{fill:#1A1816!important;}#my-svg .tier2&gt;*{fill:#F5F0E8!important;stroke:#A67B3D!important;color:#1A1816!important;}#my-svg .tier2 span{fill:#F5F0E8!important;stroke:#A67B3D!important;color:#1A1816!important;}#my-svg .tier2 tspan{fill:#1A1816!important;}#my-svg .cms&gt;*{fill:#FFFFFF!important;stroke:#4A6B52!important;color:#1A1816!important;}#my-svg .cms span{fill:#FFFFFF!important;stroke:#4A6B52!important;color:#1A1816!important;}#my-svg .cms tspan{fill:#1A1816!important;}#my-svg .out&gt;*{fill:#3D5A7A!important;stroke:#2C4562!important;color:#FAFAF7!important;}#my-svg .out span{fill:#3D5A7A!important;stroke:#2C4562!important;color:#FAFAF7!important;}#my-svg .out tspan{fill:#FAFAF7!important;}</style><g><marker id="my-svg_flowchart-v2-pointEnd" class="marker flowchart-v2" viewBox="0 0 10 10" refX="5" refY="5" markerUnits="userSpaceOnUse" markerWidth="8" markerHeight="8" orient="auto"><path d="M 0 0 L 10 5 L 0 10 z" class="arrowMarkerPath" style="stroke-width: 1; stroke-dasharray: 1, 0;"/></marker><marker id="my-svg_flowchart-v2-pointStart" class="marker flowchart-v2" viewBox="0 0 10 10" refX="4.5" refY="5" markerUnits="userSpaceOnUse" markerWidth="8" markerHeight="8" orient="auto"><path d="M 0 5 L 10 10 L 10 0 z" class="arrowMarkerPath" style="stroke-width: 1; stroke-dasharray: 1, 0;"/></marker><marker id="my-svg_flowchart-v2-circleEnd" class="marker flowchart-v2" viewBox="0 0 10 10" refX="11" refY="5" markerUnits="userSpaceOnUse" markerWidth="11" markerHeight="11" orient="auto"><circle cx="5" cy="5" r="5" class="arrowMarkerPath" style="stroke-width: 1; stroke-dasharray: 1, 0;"/></marker><marker id="my-svg_flowchart-v2-circleStart" class="marker flowchart-v2" viewBox="0 0 10 10" refX="-1" refY="5" markerUnits="userSpaceOnUse" markerWidth="11" markerHeight="11" orient="auto"><circle cx="5" cy="5" r="5" class="arrowMarkerPath" style="stroke-width: 1; stroke-dasharray: 1, 0;"/></marker><marker id="my-svg_flowchart-v2-crossEnd" class="marker cross flowchart-v2" viewBox="0 0 11 11" refX="12" refY="5.2" markerUnits="userSpaceOnUse" markerWidth="11" markerHeight="11" orient="auto"><path d="M 1,1 l 9,9 M 10,1 l -9,9" class="arrowMarkerPath" style="stroke-width: 2; stroke-dasharray: 1, 0;"/></marker><marker id="my-svg_flowchart-v2-crossStart" class="marker cross flowchart-v2" viewBox="0 0 11 11" refX="-1" refY="5.2" markerUnits="userSpaceOnUse" markerWidth="11" markerHeight="11" orient="auto"><path d="M 1,1 l 9,9 M 10,1 l -9,9" class="arrowMarkerPath" style="stroke-width: 2; stroke-dasharray: 1, 0;"/></marker><g class="root"><g class="clusters"/><g class="edgePaths"><path d="M254.191,44.878L229.02,49.399C203.849,53.919,153.506,62.959,128.335,118.146C103.164,173.333,103.164,274.667,103.164,325.333L103.164,376" id="L_User_Search_0" class="edge-thickness-normal edge-pattern-solid edge-thickness-normal edge-pattern-solid flowchart-link" style=";" data-edge="true" data-et="edge" data-id="L_User_Search_0" data-points="W3sieCI6MjU0LjE5MTA2MDIzODY1NDU2LCJ5Ijo0NC44Nzg0MDk4NzM0MTMzNTR9LHsieCI6MTAzLjE2NDA2MjUsInkiOjcyfSx7IngiOjEwMy4xNjQwNjI1LCJ5IjozODB9XQ==" marker-end="url(#my-svg_flowchart-v2-pointEnd)"/><path d="M103.164,458L103.164,513.333C103.164,568.667,103.164,679.333,126.216,743.032C149.267,806.73,195.371,823.46,218.423,831.824L241.474,840.189" id="L_Search_Result_0" class="edge-thickness-normal edge-pattern-solid edge-thickness-normal edge-pattern-solid flowchart-link" style=";" data-edge="true" data-et="edge" data-id="L_Search_Result_0" data-points="W3sieCI6MTAzLjE2NDA2MjUsInkiOjQ1OH0seyJ4IjoxMDMuMTY0MDYyNSwieSI6NzkwfSx7IngiOjI0NS4yMzQzNzUsInkiOjg0MS41NTM3NTE0ODk5NjQ4fV0=" marker-end="url(#my-svg_flowchart-v2-pointEnd)"/><path d="M316.664,917L312.078,923.167C307.491,929.333,298.318,941.667,296.451,953.58C294.585,965.494,300.026,976.987,302.746,982.734L305.466,988.481" id="L_Result_Sanity_0" class="edge-thickness-normal edge-pattern-dotted edge-thickness-normal edge-pattern-solid flowchart-link" style=";" data-edge="true" data-et="edge" data-id="L_Result_Sanity_0" data-points="W3sieCI6MzE2LjY2NDQyMjI4NjE4NDIsInkiOjkxN30seyJ4IjoyODkuMTQ0NTMxMjUsInkiOjk1NH0seyJ4IjozMDcuMTc3NDA1NjU5NDgzNTUsInkiOjk5Mi4wOTYyOTc4NTAzMzE4fV0=" marker-end="url(#my-svg_flowchart-v2-pointEnd)"/><path d="M384.166,992.096L387.172,985.747C390.177,979.398,396.188,966.699,395.005,954.718C393.822,942.737,385.444,931.473,381.255,925.841L377.067,920.21" id="L_Sanity_Result_0" class="edge-thickness-normal edge-pattern-dotted edge-thickness-normal edge-pattern-solid flowchart-link" style=";" data-edge="true" data-et="edge" data-id="L_Sanity_Result_0" data-points="W3sieCI6Mzg0LjE2NjM0NDM0MDUxNjQ1LCJ5Ijo5OTIuMDk2Mjk3ODUwMzMxOH0seyJ4Ijo0MDIuMTk5MjE4NzUsInkiOjk1NH0seyJ4IjozNzQuNjc5MzI3NzEzODE1OCwieSI6OTE3fV0=" marker-end="url(#my-svg_flowchart-v2-pointEnd)"/><path d="M345.672,47L345.672,51.167C345.672,55.333,345.672,63.667,345.672,71.333C345.672,79,345.672,86,345.672,89.5L345.672,93" id="L_User_Top_0" class="edge-thickness-normal edge-pattern-solid edge-thickness-normal edge-pattern-solid flowchart-link" style=";" data-edge="true" data-et="edge" data-id="L_User_Top_0" data-points="W3sieCI6MzQ1LjY3MTg3NSwieSI6NDd9LHsieCI6MzQ1LjY3MTg3NSwieSI6NzJ9LHsieCI6MzQ1LjY3MTg3NSwieSI6OTd9XQ==" marker-end="url(#my-svg_flowchart-v2-pointEnd)"/><path d="M447.388,43.573L477.372,48.311C507.355,53.049,567.322,62.524,597.306,88.095C627.289,113.667,627.289,155.333,627.289,176.167L627.289,197" id="L_User_Sec_0" class="edge-thickness-normal edge-pattern-solid edge-thickness-normal edge-pattern-solid flowchart-link" style=";" data-edge="true" data-et="edge" data-id="L_User_Sec_0" data-points="W3sieCI6NDQ3LjM4ODQyMDEwNDk4MDQ3LCJ5Ijo0My41NzI4MzM4MjU3ODIxNH0seyJ4Ijo2MjcuMjg5MDYyNSwieSI6NzJ9LHsieCI6NjI3LjI4OTA2MjUsInkiOjIwMX1d" marker-end="url(#my-svg_flowchart-v2-pointEnd)"/><path d="M345.672,741L345.672,749.167C345.672,757.333,345.672,773.667,345.672,789.333C345.672,805,345.672,820,345.672,827.5L345.672,835" id="L_Top_Result_0" class="edge-thickness-normal edge-pattern-solid edge-thickness-normal edge-pattern-solid flowchart-link" style=";" data-edge="true" data-et="edge" data-id="L_Top_Result_0" data-points="W3sieCI6MzQ1LjY3MTg3NSwieSI6NzQxfSx7IngiOjM0NS42NzE4NzUsInkiOjc5MH0seyJ4IjozNDUuNjcxODc1LCJ5Ijo4Mzl9XQ==" marker-end="url(#my-svg_flowchart-v2-pointEnd)"/><path d="M627.289,637L627.289,662.5C627.289,688,627.289,739,597.729,773.737C568.168,808.474,509.048,826.948,479.488,836.185L449.927,845.422" id="L_Sec_Result_0" class="edge-thickness-normal edge-pattern-solid edge-thickness-normal edge-pattern-solid flowchart-link" style=";" data-edge="true" data-et="edge" data-id="L_Sec_Result_0" data-points="W3sieCI6NjI3LjI4OTA2MjUsInkiOjYzN30seyJ4Ijo2MjcuMjg5MDYyNSwieSI6NzkwfSx7IngiOjQ0Ni4xMDkzNzUsInkiOjg0Ni42MTUxOTY4MjYzNjU2fV0=" marker-end="url(#my-svg_flowchart-v2-pointEnd)"/></g><g class="edgeLabels"><g class="edgeLabel"><g class="label" data-id="L_User_Search_0" transform="translate(0, 0)"><foreignObject width="0" height="0"><div xmlns="http://www.w3.org/1999/xhtml" class="labelBkg" style="display: table-cell; white-space: nowrap; line-height: 1.5; max-width: 200px; text-align: center;"><span class="edgeLabel"></span></div></foreignObject></g></g><g class="edgeLabel" transform="translate(103.1640625, 790)"><g class="label" data-id="L_Search_Result_0" transform="translate(-20.40625, -12)"><foreignObject width="40.8125" height="24"><div xmlns="http://www.w3.org/1999/xhtml" class="labelBkg" style="display: table-cell; white-space: nowrap; line-height: 1.5; max-width: 200px; text-align: center;"><span class="edgeLabel"><p>?q=...</p></span></div></foreignObject></g></g><g class="edgeLabel" transform="translate(289.14453125, 954)"><g class="label" data-id="L_Result_Sanity_0" transform="translate(-43.5234375, -12)"><foreignObject width="87.046875" height="24"><div xmlns="http://www.w3.org/1999/xhtml" class="labelBkg" style="display: table-cell; white-space: nowrap; line-height: 1.5; max-width: 200px; text-align: center;"><span class="edgeLabel"><p>GROQ query</p></span></div></foreignObject></g></g><g class="edgeLabel" transform="translate(401.01648, 952.40982)"><g class="label" data-id="L_Sanity_Result_0" transform="translate(-49.53125, -12)"><foreignObject width="99.0625" height="24"><div xmlns="http://www.w3.org/1999/xhtml" class="labelBkg" style="display: table-cell; white-space: nowrap; line-height: 1.5; max-width: 200px; text-align: center;"><span class="edgeLabel"><p>matched docs</p></span></div></foreignObject></g></g><g class="edgeLabel"><g class="label" data-id="L_User_Top_0" transform="translate(0, 0)"><foreignObject width="0" height="0"><div xmlns="http://www.w3.org/1999/xhtml" class="labelBkg" style="display: table-cell; white-space: nowrap; line-height: 1.5; max-width: 200px; text-align: center;"><span class="edgeLabel"></span></div></foreignObject></g></g><g class="edgeLabel"><g class="label" data-id="L_User_Sec_0" transform="translate(0, 0)"><foreignObject width="0" height="0"><div xmlns="http://www.w3.org/1999/xhtml" class="labelBkg" style="display: table-cell; white-space: nowrap; line-height: 1.5; max-width: 200px; text-align: center;"><span class="edgeLabel"></span></div></foreignObject></g></g><g class="edgeLabel" transform="translate(345.671875, 790)"><g class="label" data-id="L_Top_Result_0" transform="translate(-36.578125, -12)"><foreignObject width="73.15625" height="24"><div xmlns="http://www.w3.org/1999/xhtml" class="labelBkg" style="display: table-cell; white-space: nowrap; line-height: 1.5; max-width: 200px; text-align: center;"><span class="edgeLabel"><p>?phase=...</p></span></div></foreignObject></g></g><g class="edgeLabel" transform="translate(627.2890625, 790)"><g class="label" data-id="L_Sec_Result_0" transform="translate(-100, -24)"><foreignObject width="200" height="48"><div xmlns="http://www.w3.org/1999/xhtml" class="labelBkg" style="display: table; white-space: break-spaces; line-height: 1.5; max-width: 200px; text-align: center; width: 200px;"><span class="edgeLabel"><p>?type · ?use · ?buyerType · ?area</p></span></div></foreignObject></g></g></g><g class="nodes"><g class="root" transform="translate(485.015625, 193)"><g class="clusters"><g class="cluster" id="Sec" data-look="classic"><rect style="" x="8" y="8" width="268.546875" height="436"/><g class="cluster-label" transform="translate(53.6328125, 8)"><foreignObject width="177.28125" height="24"><div xmlns="http://www.w3.org/1999/xhtml" style="display: table-cell; white-space: nowrap; line-height: 1.5; max-width: 200px; text-align: center;"><span class="nodeLabel"><p>Tier 2 — Secondary chips</p></span></div></foreignObject></g></g></g><g class="edgePaths"/><g class="edgeLabels"/><g class="nodes"><g class="node default tier2" id="flowchart-Area-7" transform="translate(142.2734375, 70)"><rect class="basic label-container" style="fill:#F5F0E8 !important;stroke:#A67B3D !important" x="-63.875" y="-27" width="127.75" height="54"/><g class="label" style="color:#1A1816 !important" transform="translate(-33.875, -12)"><rect/><foreignObject width="67.75" height="24"><div style="color: rgb(26, 24, 22) !important; display: table-cell; white-space: nowrap; line-height: 1.5; max-width: 200px; text-align: center;" xmlns="http://www.w3.org/1999/xhtml"><span style="color:#1A1816 !important" class="nodeLabel"><p>Area chip</p></span></div></foreignObject></g></g><g class="node default tier2" id="flowchart-PT-8" transform="translate(142.2734375, 174)"><rect class="basic label-container" style="fill:#F5F0E8 !important;stroke:#A67B3D !important" x="-96.7734375" y="-27" width="193.546875" height="54"/><g class="label" style="color:#1A1816 !important" transform="translate(-66.7734375, -12)"><rect/><foreignObject width="133.546875" height="24"><div style="color: rgb(26, 24, 22) !important; display: table-cell; white-space: nowrap; line-height: 1.5; max-width: 200px; text-align: center;" xmlns="http://www.w3.org/1999/xhtml"><span style="color:#1A1816 !important" class="nodeLabel"><p>Property Type chip</p></span></div></foreignObject></g></g><g class="node default tier2" id="flowchart-UC-9" transform="translate(142.2734375, 278)"><rect class="basic label-container" style="fill:#F5F0E8 !important;stroke:#A67B3D !important" x="-79.2734375" y="-27" width="158.546875" height="54"/><g class="label" style="color:#1A1816 !important" transform="translate(-49.2734375, -12)"><rect/><foreignObject width="98.546875" height="24"><div style="color: rgb(26, 24, 22) !important; display: table-cell; white-space: nowrap; line-height: 1.5; max-width: 200px; text-align: center;" xmlns="http://www.w3.org/1999/xhtml"><span style="color:#1A1816 !important" class="nodeLabel"><p>Use Case chip</p></span></div></foreignObject></g></g><g class="node default tier2" id="flowchart-BT-10" transform="translate(142.2734375, 382)"><rect class="basic label-container" style="fill:#F5F0E8 !important;stroke:#A67B3D !important" x="-86.5546875" y="-27" width="173.109375" height="54"/><g class="label" style="color:#1A1816 !important" transform="translate(-56.5546875, -12)"><rect/><foreignObject width="113.109375" height="24"><div style="color: rgb(26, 24, 22) !important; display: table-cell; white-space: nowrap; line-height: 1.5; max-width: 200px; text-align: center;" xmlns="http://www.w3.org/1999/xhtml"><span style="color:#1A1816 !important" class="nodeLabel"><p>Buyer Type chip</p></span></div></foreignObject></g></g></g></g><g class="root" transform="translate(240.328125, 89)"><g class="clusters"><g class="cluster" id="Top" data-look="classic"><rect style="" x="8" y="8" width="194.6875" height="644"/><g class="cluster-label" transform="translate(21.46875, 8)"><foreignObject width="167.75" height="24"><div xmlns="http://www.w3.org/1999/xhtml" style="display: table-cell; white-space: nowrap; line-height: 1.5; max-width: 200px; text-align: center;"><span class="nodeLabel"><p>Tier 1 — Phase timeline</p></span></div></foreignObject></g></g></g><g class="edgePaths"/><g class="edgeLabels"/><g class="nodes"><g class="node default tier1" id="flowchart-T1-1" transform="translate(105.34375, 70)"><rect class="basic label-container" style="fill:#FAFAF7 !important;stroke:#3D5A7A !important" x="-54.3359375" y="-27" width="108.671875" height="54"/><g class="label" style="color:#1A1816 !important" transform="translate(-24.3359375, -12)"><rect/><foreignObject width="48.671875" height="24"><div style="color: rgb(26, 24, 22) !important; display: table-cell; white-space: nowrap; line-height: 1.5; max-width: 200px; text-align: center;" xmlns="http://www.w3.org/1999/xhtml"><span style="color:#1A1816 !important" class="nodeLabel"><p>Decide</p></span></div></foreignObject></g></g><g class="node default tier1" id="flowchart-T2-2" transform="translate(105.34375, 174)"><rect class="basic label-container" style="fill:#FAFAF7 !important;stroke:#3D5A7A !important" x="-46.3984375" y="-27" width="92.796875" height="54"/><g class="label" style="color:#1A1816 !important" transform="translate(-16.3984375, -12)"><rect/><foreignObject width="32.796875" height="24"><div style="color: rgb(26, 24, 22) !important; display: table-cell; white-space: nowrap; line-height: 1.5; max-width: 200px; text-align: center;" xmlns="http://www.w3.org/1999/xhtml"><span style="color:#1A1816 !important" class="nodeLabel"><p>Area</p></span></div></foreignObject></g></g><g class="node default tier1" id="flowchart-T3-3" transform="translate(105.34375, 278)"><rect class="basic label-container" style="fill:#FAFAF7 !important;stroke:#3D5A7A !important" x="-59.84375" y="-27" width="119.6875" height="54"/><g class="label" style="color:#1A1816 !important" transform="translate(-29.84375, -12)"><rect/><foreignObject width="59.6875" height="24"><div style="color: rgb(26, 24, 22) !important; display: table-cell; white-space: nowrap; line-height: 1.5; max-width: 200px; text-align: center;" xmlns="http://www.w3.org/1999/xhtml"><span style="color:#1A1816 !important" class="nodeLabel"><p>Shortlist</p></span></div></foreignObject></g></g><g class="node default tier1" id="flowchart-T4-4" transform="translate(105.34375, 382)"><rect class="basic label-container" style="fill:#FAFAF7 !important;stroke:#3D5A7A !important" x="-47.453125" y="-27" width="94.90625" height="54"/><g class="label" style="color:#1A1816 !important" transform="translate(-17.453125, -12)"><rect/><foreignObject width="34.90625" height="24"><div style="color: rgb(26, 24, 22) !important; display: table-cell; white-space: nowrap; line-height: 1.5; max-width: 200px; text-align: center;" xmlns="http://www.w3.org/1999/xhtml"><span style="color:#1A1816 !important" class="nodeLabel"><p>Risks</p></span></div></foreignObject></g></g><g class="node default tier1" id="flowchart-T5-5" transform="translate(105.34375, 486)"><rect class="basic label-container" style="fill:#FAFAF7 !important;stroke:#3D5A7A !important" x="-48.78125" y="-27" width="97.5625" height="54"/><g class="label" style="color:#1A1816 !important" transform="translate(-18.78125, -12)"><rect/><foreignObject width="37.5625" height="24"><div style="color: rgb(26, 24, 22) !important; display: table-cell; white-space: nowrap; line-height: 1.5; max-width: 200px; text-align: center;" xmlns="http://www.w3.org/1999/xhtml"><span style="color:#1A1816 !important" class="nodeLabel"><p>Offer</p></span></div></foreignObject></g></g><g class="node default tier1" id="flowchart-T6-6" transform="translate(105.34375, 590)"><rect class="basic label-container" style="fill:#FAFAF7 !important;stroke:#3D5A7A !important" x="-55.34375" y="-27" width="110.6875" height="54"/><g class="label" style="color:#1A1816 !important" transform="translate(-25.34375, -12)"><rect/><foreignObject width="50.6875" height="24"><div style="color: rgb(26, 24, 22) !important; display: table-cell; white-space: nowrap; line-height: 1.5; max-width: 200px; text-align: center;" xmlns="http://www.w3.org/1999/xhtml"><span style="color:#1A1816 !important" class="nodeLabel"><p>Closing</p></span></div></foreignObject></g></g></g></g><g class="node default" id="flowchart-User-0" transform="translate(345.671875, 27.5)"><g class="basic label-container outer-path"><path d="M-82.2265625 -19.5 C-22.900153155356257 -19.5, 36.426256189287486 -19.5, 82.2265625 -19.5 C82.2265625 -19.5, 82.2265625 -19.5, 82.2265625 -19.5 C82.66361575869584 -19.485984552666185, 83.1006690173917 -19.47196910533237, 83.4759317896239 -19.45993515863156 C83.96254537758787 -19.412992131039136, 84.44915896555185 -19.366049103446716, 84.72016715284786 -19.3399052695533 C85.0856236668495 -19.28082109452711, 85.45108018085115 -19.22173691950092, 85.95415575967675 -19.140403561325776 C86.41748724284331 -19.0346511738135, 86.88081872600986 -18.92889878630122, 87.17282688623538 -18.862249829261074 C87.54739484099287 -18.75108002643637, 87.92196279575035 -18.63991022361167, 88.3711727514606 -18.50658706670804 C88.76237163773483 -18.36262226035626, 89.15357052400906 -18.218657454004482, 89.5442690951478 -18.074876768247425 C89.77539458063517 -17.9725643719161, 90.00652006612252 -17.87025197558477, 90.68729541279238 -17.568892924097174 C91.017735681721 -17.396502447454203, 91.34817595064963 -17.224111970811236, 91.79555476407678 -16.990714730406097 C92.0413158423719 -16.84173292049119, 92.28707692066703 -16.69275111057628, 92.8644930736057 -16.342718045390892 C93.26654592256536 -16.062263382543954, 93.66859877152501 -15.781808719697013, 93.88971784457871 -15.627565626425154 C94.27896569985165 -15.31715082016543, 94.6682135551246 -15.006736013905705, 94.86701620850187 -14.848196188198123 C95.21768640516967 -14.529726793809404, 95.56835660183746 -14.211257399420683, 95.79237223676799 -14.007812326905688 C95.99051588179277 -13.8032127455218, 96.18865952681756 -13.59861316413791, 96.66198344296865 -13.10986736009568 C96.86733931228565 -12.868644670915947, 97.07269518160264 -12.62742198173621, 97.47227640812658 -12.158051136245305 C97.73160670619994 -11.81057216230318, 97.99093700427329 -11.463093188361054, 98.21992146464063 -11.156274872382312 C98.41321497271122 -10.859324137411384, 98.60650848078178 -10.562373402440459, 98.90184637860425 -10.108655082055241 C99.11509270072851 -9.730014643591973, 99.32833902285277 -9.351374205128705, 99.5152489742735 -9.019496659696287 C99.62688678048278 -8.78767836643634, 99.73852458669205 -8.555860073176392, 100.05760864880834 -7.893275190886684 C100.20278615976164 -7.534683932015816, 100.34796367071493 -7.176092673144947, 100.52669672997033 -6.734618561215508 C100.62018719294812 -6.453040182408802, 100.7136776559259 -6.171461803602097, 100.92058563421489 -5.548287939305138 C101.0197079234817 -5.170291690458819, 101.11883021274853 -4.7922954416125, 101.23765678754556 -4.339158212148133 C101.30643306908136 -3.9860065423340325, 101.37520935061717 -3.6328548725199323, 101.47660727658177 -3.1121979531509023 C101.51958575446842 -2.7788653657224573, 101.56256423235507 -2.4455327782940124, 101.63645520250937 -1.872449005199798 C101.66308748947189 -1.4576296385632799, 101.68971977643443 -1.0428102719267618, 101.71654371591342 -0.6250057626472757 C101.71654371591342 -0.1476638328272153, 101.71654371591342 0.3296780969928451, 101.71654371591342 0.625005762647271 C101.6864925615297 1.0930767490288986, 101.65644140714598 1.5611477354105263, 101.63645520250937 1.8724490051997846 C101.59354795121165 2.205229173269722, 101.55064069991394 2.5380093413396585, 101.47660727658177 3.1121979531508885 C101.39950022713953 3.508126355456203, 101.32239317769726 3.9040547577615174, 101.23765678754556 4.339158212148129 C101.14869483165059 4.678408706331271, 101.0597328757556 5.017659200514412, 100.92058563421489 5.548287939305125 C100.79558615463397 5.924766455840439, 100.67058667505303 6.301244972375753, 100.52669672997033 6.734618561215495 C100.35640905545175 7.155232409564579, 100.18612138093319 7.575846257913664, 100.05760864880834 7.893275190886679 C99.84319933099097 8.338500726958928, 99.6287900131736 8.783726263031179, 99.5152489742735 9.019496659696284 C99.27811054017216 9.44055996231353, 99.04097210607083 9.861623264930778, 98.90184637860425 10.108655082055236 C98.66895731982375 10.466435215810714, 98.43606826104326 10.824215349566192, 98.21992146464065 11.156274872382301 C97.99167265833611 11.462107478936357, 97.76342385203158 11.76794008549041, 97.47227640812659 12.158051136245302 C97.15908425185842 12.525944464136435, 96.84589209559024 12.893837792027568, 96.66198344296866 13.10986736009567 C96.411760996034 13.368242580200654, 96.16153854909935 13.62661780030564, 95.79237223676799 14.007812326905684 C95.53843177860766 14.238434332110565, 95.28449132044732 14.469056337315445, 94.8670162085019 14.848196188198111 C94.63100260412367 15.03641075710397, 94.39498899974542 15.224625326009832, 93.88971784457871 15.627565626425152 C93.63300481902152 15.80663752012608, 93.37629179346433 15.985709413827006, 92.8644930736057 16.34271804539089 C92.59765535317328 16.50447663962953, 92.33081763274085 16.666235233868168, 91.79555476407678 16.990714730406093 C91.35795840182539 17.2190084722988, 90.92036203957399 17.447302214191502, 90.68729541279238 17.56889292409717 C90.36467198799207 17.711708743972405, 90.04204856319176 17.854524563847637, 89.5442690951478 18.07487676824742 C89.13748463751232 18.224577208931585, 88.73070017987682 18.374277649615752, 88.37117275146062 18.506587066708033 C87.956727051354 18.62959237502981, 87.54228135124737 18.75259768335158, 87.17282688623541 18.86224982926107 C86.89922325055483 18.924698073674584, 86.62561961487424 18.9871463180881, 85.95415575967677 19.140403561325773 C85.55695260153877 19.20462028757703, 85.15974944340077 19.268837013828282, 84.72016715284788 19.3399052695533 C84.32891031870138 19.377649345788225, 83.93765348455489 19.41539342202315, 83.4759317896239 19.45993515863156 C83.04844786326305 19.473643736102968, 82.62096393690219 19.487352313574373, 82.2265625 19.5 C82.2265625 19.5, 82.2265625 19.5, 82.2265625 19.5 C41.769522534940435 19.5, 1.3124825698808706 19.5, -82.2265625 19.5 C-82.69244504142641 19.48506005368181, -83.15832758285282 19.470120107363623, -83.4759317896239 19.45993515863156 C-83.74160146604362 19.43430632446188, -84.00727114246335 19.408677490292202, -84.72016715284786 19.3399052695533 C-85.20473623457585 19.26156389830887, -85.68930531630382 19.183222527064444, -85.95415575967675 19.140403561325773 C-86.23322191856668 19.076708531636022, -86.51228807745662 19.01301350194627, -87.17282688623538 18.862249829261074 C-87.56940095607646 18.744548726992015, -87.96597502591754 18.626847624722952, -88.37117275146059 18.506587066708043 C-88.70584669074562 18.383423963359174, -89.04052063003064 18.260260860010305, -89.5442690951478 18.074876768247425 C-89.85044026729969 17.93934387258091, -90.15661143945158 17.803810976914395, -90.68729541279238 17.568892924097174 C-90.99541941853903 17.408144827661996, -91.30354342428566 17.247396731226818, -91.79555476407678 16.990714730406097 C-92.22148832681228 16.732511301612387, -92.64742188954779 16.474307872818677, -92.86449307360569 16.3427180453909 C-93.13041607521633 16.15722167108852, -93.39633907682698 15.97172529678614, -93.88971784457871 15.627565626425156 C-94.19219629784119 15.386347109238013, -94.49467475110369 15.14512859205087, -94.86701620850187 14.848196188198125 C-95.2205760762312 14.527102471007833, -95.57413594396051 14.206008753817539, -95.79237223676797 14.007812326905697 C-96.06881706704387 13.722360343103166, -96.34526189731977 13.436908359300636, -96.66198344296865 13.109867360095677 C-96.85886606602232 12.878597828118227, -97.05574868907597 12.647328296140778, -97.47227640812658 12.158051136245307 C-97.63372673846318 11.941722402021936, -97.79517706879977 11.725393667798567, -98.21992146464063 11.156274872382316 C-98.39624682092698 10.885391775138705, -98.57257217721332 10.614508677895095, -98.90184637860425 10.108655082055249 C-99.0506287543602 9.844476908051325, -99.19941113011615 9.580298734047402, -99.5152489742735 9.019496659696289 C-99.6515256055722 8.736515318951737, -99.7878022368709 8.453533978207185, -100.05760864880834 7.893275190886686 C-100.24493626556325 7.430572355768958, -100.43226388231817 6.96786952065123, -100.52669672997033 6.73461856121551 C-100.68122146233509 6.269214687505447, -100.83574619469987 5.803810813795384, -100.92058563421489 5.5482879393051325 C-100.99088954224725 5.280188668071271, -101.0611934502796 5.01208939683741, -101.23765678754556 4.339158212148136 C-101.29413672925803 4.049145648494508, -101.3506166709705 3.759133084840881, -101.47660727658177 3.112197953150904 C-101.5388656973084 2.629333936311007, -101.60112411803502 2.1464699194711097, -101.63645520250937 1.872449005199809 C-101.65485145679067 1.5859124955794295, -101.67324771107197 1.29937598595905, -101.71654371591342 0.6250057626472781 C-101.71654371591342 0.21250946851382146, -101.71654371591342 -0.1999868256196352, -101.71654371591342 -0.6250057626472687 C-101.69128031923647 -1.0185035581375865, -101.6660169225595 -1.4120013536279044, -101.63645520250937 -1.8724490051997822 C-101.59898176907465 -2.1630855549529664, -101.56150833563994 -2.453722104706151, -101.47660727658177 -3.112197953150895 C-101.38332392512565 -3.591188247434806, -101.29004057366951 -4.070178541718716, -101.23765678754556 -4.339158212148126 C-101.11974160298159 -4.788819915654814, -101.00182641841762 -5.238481619161502, -100.92058563421489 -5.548287939305123 C-100.82818353324967 -5.826588345136886, -100.73578143228445 -6.104888750968651, -100.52669672997033 -6.734618561215485 C-100.37782306760369 -7.102339385537547, -100.22894940523705 -7.47006020985961, -100.05760864880834 -7.893275190886676 C-99.92580516289843 -8.166967949521442, -99.7940016769885 -8.440660708156209, -99.5152489742735 -9.019496659696282 C-99.30611094735411 -9.390842404013302, -99.09697292043472 -9.762188148330324, -98.90184637860425 -10.108655082055243 C-98.70860084756514 -10.405532111422211, -98.51535531652601 -10.702409140789179, -98.21992146464063 -11.156274872382308 C-98.00465190440586 -11.444716471636522, -97.78938234417109 -11.733158070890735, -97.47227640812659 -12.158051136245302 C-97.22778765467707 -12.44524153785128, -96.98329890122756 -12.732431939457255, -96.66198344296866 -13.10986736009567 C-96.36546418946989 -13.41604783401661, -96.06894493597112 -13.722228307937549, -95.79237223676799 -14.007812326905677 C-95.59114373163287 -14.190562731054904, -95.38991522649776 -14.37331313520413, -94.8670162085019 -14.848196188198107 C-94.66389514614092 -15.010179830152513, -94.46077408377992 -15.17216347210692, -93.88971784457871 -15.627565626425149 C-93.54434374084077 -15.868483650188756, -93.19896963710283 -16.109401673952362, -92.86449307360571 -16.342718045390885 C-92.61576330585422 -16.493499492300202, -92.36703353810272 -16.64428093920952, -91.79555476407678 -16.99071473040609 C-91.35610124903472 -17.21997734772013, -90.91664773399266 -17.449239965034167, -90.6872954127924 -17.56889292409717 C-90.27007995419716 -17.75358183136043, -89.85286449560192 -17.938270738623693, -89.54426909514781 -18.07487676824742 C-89.17124934750113 -18.212151483538143, -88.79822959985447 -18.34942619882887, -88.37117275146062 -18.506587066708033 C-88.10118646069411 -18.586717580620572, -87.83120016992761 -18.666848094533112, -87.17282688623541 -18.862249829261067 C-86.88831618001213 -18.927187541350666, -86.60380547378885 -18.99212525344026, -85.95415575967677 -19.140403561325773 C-85.52103835948701 -19.21042662371285, -85.08792095929725 -19.280449686099928, -84.72016715284788 -19.3399052695533 C-84.26946569594934 -19.383383897052497, -83.81876423905078 -19.42686252455169, -83.4759317896239 -19.45993515863156 C-83.15840594974408 -19.470117594289952, -82.84088010986424 -19.480300029948342, -82.2265625 -19.5 C-82.2265625 -19.5, -82.2265625 -19.5, -82.2265625 -19.5" stroke="none" stroke-width="0" fill="#FAFAF7" style=""/><path d="M-82.2265625 -19.5 C-18.951803024324235 -19.5, 44.32295645135153 -19.5, 82.2265625 -19.5 M-82.2265625 -19.5 C-20.216421694752803 -19.5, 41.79371911049439 -19.5, 82.2265625 -19.5 M82.2265625 -19.5 C82.2265625 -19.5, 82.2265625 -19.5, 82.2265625 -19.5 M82.2265625 -19.5 C82.2265625 -19.5, 82.2265625 -19.5, 82.2265625 -19.5 M82.2265625 -19.5 C82.50719521645289 -19.491000655001802, 82.78782793290578 -19.482001310003604, 83.4759317896239 -19.45993515863156 M82.2265625 -19.5 C82.62450024875038 -19.487238910936416, 83.02243799750076 -19.47447782187283, 83.4759317896239 -19.45993515863156 M83.4759317896239 -19.45993515863156 C83.74727311526182 -19.433759187282956, 84.01861444089974 -19.407583215934356, 84.72016715284786 -19.3399052695533 M83.4759317896239 -19.45993515863156 C83.741446324289 -19.434321290800362, 84.00696085895412 -19.40870742296917, 84.72016715284786 -19.3399052695533 M84.72016715284786 -19.3399052695533 C85.13111568766502 -19.273466297397547, 85.54206422248217 -19.207027325241796, 85.95415575967675 -19.140403561325776 M84.72016715284786 -19.3399052695533 C85.18182369223238 -19.265268220465543, 85.64348023161689 -19.190631171377788, 85.95415575967675 -19.140403561325776 M85.95415575967675 -19.140403561325776 C86.2270743084897 -19.07811168351919, 86.49999285730264 -19.015819805712606, 87.17282688623538 -18.862249829261074 M85.95415575967675 -19.140403561325776 C86.22588265026278 -19.07838367173319, 86.4976095408488 -19.0163637821406, 87.17282688623538 -18.862249829261074 M87.17282688623538 -18.862249829261074 C87.60461303614181 -18.7340979664606, 88.03639918604824 -18.605946103660123, 88.3711727514606 -18.50658706670804 M87.17282688623538 -18.862249829261074 C87.58690056741449 -18.739354934204222, 88.0009742485936 -18.61646003914737, 88.3711727514606 -18.50658706670804 M88.3711727514606 -18.50658706670804 C88.64974423965427 -18.404070183966162, 88.92831572784793 -18.30155330122429, 89.5442690951478 -18.074876768247425 M88.3711727514606 -18.50658706670804 C88.79910989612529 -18.349102241663836, 89.22704704078997 -18.19161741661963, 89.5442690951478 -18.074876768247425 M89.5442690951478 -18.074876768247425 C89.95080255402232 -17.894916465390263, 90.35733601289682 -17.714956162533102, 90.68729541279238 -17.568892924097174 M89.5442690951478 -18.074876768247425 C89.79936055142348 -17.961955347573376, 90.05445200769915 -17.849033926899327, 90.68729541279238 -17.568892924097174 M90.68729541279238 -17.568892924097174 C90.90918965881252 -17.453130838078515, 91.13108390483266 -17.337368752059856, 91.79555476407678 -16.990714730406097 M90.68729541279238 -17.568892924097174 C91.0017714176377 -17.40483099380087, 91.316247422483 -17.240769063504565, 91.79555476407678 -16.990714730406097 M91.79555476407678 -16.990714730406097 C92.18773558400403 -16.752972412655883, 92.57991640393128 -16.515230094905668, 92.8644930736057 -16.342718045390892 M91.79555476407678 -16.990714730406097 C92.14823543536029 -16.776917634892357, 92.5009161066438 -16.563120539378613, 92.8644930736057 -16.342718045390892 M92.8644930736057 -16.342718045390892 C93.22747857746037 -16.089515071291075, 93.59046408131505 -15.83631209719126, 93.88971784457871 -15.627565626425154 M92.8644930736057 -16.342718045390892 C93.2387229106563 -16.08167151121293, 93.61295274770691 -15.820624977034973, 93.88971784457871 -15.627565626425154 M93.88971784457871 -15.627565626425154 C94.1449911120802 -15.423991988699647, 94.40026437958171 -15.22041835097414, 94.86701620850187 -14.848196188198123 M93.88971784457871 -15.627565626425154 C94.09397600839884 -15.464675176316616, 94.29823417221897 -15.301784726208078, 94.86701620850187 -14.848196188198123 M94.86701620850187 -14.848196188198123 C95.15947056092001 -14.582596883250101, 95.45192491333816 -14.31699757830208, 95.79237223676799 -14.007812326905688 M94.86701620850187 -14.848196188198123 C95.16930492515193 -14.5736655738577, 95.47159364180199 -14.299134959517273, 95.79237223676799 -14.007812326905688 M95.79237223676799 -14.007812326905688 C96.02283637883693 -13.769839178761552, 96.25330052090587 -13.531866030617419, 96.66198344296865 -13.10986736009568 M95.79237223676799 -14.007812326905688 C95.99215569196927 -13.80151950688364, 96.19193914717056 -13.595226686861592, 96.66198344296865 -13.10986736009568 M96.66198344296865 -13.10986736009568 C96.94802323075959 -12.77386874923144, 97.23406301855051 -12.437870138367199, 97.47227640812658 -12.158051136245305 M96.66198344296865 -13.10986736009568 C96.85582780798289 -12.882166738893108, 97.04967217299713 -12.654466117690538, 97.47227640812658 -12.158051136245305 M97.47227640812658 -12.158051136245305 C97.70033553099692 -11.852472688212544, 97.92839465386729 -11.54689424017978, 98.21992146464063 -11.156274872382312 M97.47227640812658 -12.158051136245305 C97.69156058422816 -11.864230317468595, 97.91084476032975 -11.570409498691886, 98.21992146464063 -11.156274872382312 M98.21992146464063 -11.156274872382312 C98.41669356465302 -10.853980086056035, 98.61346566466541 -10.551685299729758, 98.90184637860425 -10.108655082055241 M98.21992146464063 -11.156274872382312 C98.39031314156394 -10.89450750005635, 98.56070481848722 -10.632740127730386, 98.90184637860425 -10.108655082055241 M98.90184637860425 -10.108655082055241 C99.1290669416154 -9.705201963851952, 99.35628750462658 -9.301748845648662, 99.5152489742735 -9.019496659696287 M98.90184637860425 -10.108655082055241 C99.12862915387548 -9.705979300315022, 99.35541192914671 -9.303303518574804, 99.5152489742735 -9.019496659696287 M99.5152489742735 -9.019496659696287 C99.71119839566896 -8.612603493522645, 99.90714781706443 -8.205710327349003, 100.05760864880834 -7.893275190886684 M99.5152489742735 -9.019496659696287 C99.64979254158413 -8.740114063404603, 99.78433610889475 -8.460731467112918, 100.05760864880834 -7.893275190886684 M100.05760864880834 -7.893275190886684 C100.21547204759013 -7.503349543814494, 100.37333544637191 -7.113423896742303, 100.52669672997033 -6.734618561215508 M100.05760864880834 -7.893275190886684 C100.17715703748202 -7.597988359551836, 100.2967054261557 -7.302701528216987, 100.52669672997033 -6.734618561215508 M100.52669672997033 -6.734618561215508 C100.63784522462403 -6.399857004426252, 100.74899371927772 -6.065095447636996, 100.92058563421489 -5.548287939305138 M100.52669672997033 -6.734618561215508 C100.61698293144559 -6.462690907524674, 100.70726913292086 -6.190763253833841, 100.92058563421489 -5.548287939305138 M100.92058563421489 -5.548287939305138 C101.03717672445846 -5.103675581308205, 101.15376781470205 -4.659063223311271, 101.23765678754556 -4.339158212148133 M100.92058563421489 -5.548287939305138 C101.01369838515923 -5.193208664632828, 101.10681113610357 -4.838129389960519, 101.23765678754556 -4.339158212148133 M101.23765678754556 -4.339158212148133 C101.31366724534702 -3.948860576153552, 101.3896777031485 -3.5585629401589705, 101.47660727658177 -3.1121979531509023 M101.23765678754556 -4.339158212148133 C101.30142960651015 -4.01169826515498, 101.36520242547476 -3.6842383181618255, 101.47660727658177 -3.1121979531509023 M101.47660727658177 -3.1121979531509023 C101.51971275652863 -2.777880362822849, 101.5628182364755 -2.4435627724947953, 101.63645520250937 -1.872449005199798 M101.47660727658177 -3.1121979531509023 C101.52273864710097 -2.754412153073514, 101.56887001762017 -2.3966263529961265, 101.63645520250937 -1.872449005199798 M101.63645520250937 -1.872449005199798 C101.66633148083956 -1.4071018545092027, 101.69620775916975 -0.9417547038186075, 101.71654371591342 -0.6250057626472757 M101.63645520250937 -1.872449005199798 C101.66522799577143 -1.4242895251625398, 101.69400078903348 -0.9761300451252818, 101.71654371591342 -0.6250057626472757 M101.71654371591342 -0.6250057626472757 C101.71654371591342 -0.3097148868816403, 101.71654371591342 0.005575988883995131, 101.71654371591342 0.625005762647271 M101.71654371591342 -0.6250057626472757 C101.71654371591342 -0.1422755822961479, 101.71654371591342 0.3404545980549799, 101.71654371591342 0.625005762647271 M101.71654371591342 0.625005762647271 C101.69694689894582 0.9302420051834246, 101.67735008197823 1.2354782477195783, 101.63645520250937 1.8724490051997846 M101.71654371591342 0.625005762647271 C101.69517623286401 0.9578215586635876, 101.67380874981461 1.2906373546799041, 101.63645520250937 1.8724490051997846 M101.63645520250937 1.8724490051997846 C101.5816962305985 2.29714877795836, 101.52693725868764 2.721848550716935, 101.47660727658177 3.1121979531508885 M101.63645520250937 1.8724490051997846 C101.583270146095 2.2849418001722164, 101.53008508968065 2.697434595144648, 101.47660727658177 3.1121979531508885 M101.47660727658177 3.1121979531508885 C101.38657600942818 3.5744894818695387, 101.29654474227459 4.036781010588189, 101.23765678754556 4.339158212148129 M101.47660727658177 3.1121979531508885 C101.40327225529683 3.4887577880868745, 101.32993723401188 3.8653176230228605, 101.23765678754556 4.339158212148129 M101.23765678754556 4.339158212148129 C101.14452812410616 4.6942981680606035, 101.05139946066677 5.0494381239730775, 100.92058563421489 5.548287939305125 M101.23765678754556 4.339158212148129 C101.12388759878174 4.773009436782933, 101.0101184100179 5.206860661417737, 100.92058563421489 5.548287939305125 M100.92058563421489 5.548287939305125 C100.82408327785541 5.838937661097426, 100.72758092149593 6.129587382889726, 100.52669672997033 6.734618561215495 M100.92058563421489 5.548287939305125 C100.78605396814861 5.953475882786666, 100.65152230208233 6.358663826268207, 100.52669672997033 6.734618561215495 M100.52669672997033 6.734618561215495 C100.37187283799572 7.117036567709076, 100.21704894602112 7.499454574202656, 100.05760864880834 7.893275190886679 M100.52669672997033 6.734618561215495 C100.41267831646796 7.016246246962409, 100.29865990296558 7.297873932709323, 100.05760864880834 7.893275190886679 M100.05760864880834 7.893275190886679 C99.90469196063705 8.210809965767352, 99.75177527246575 8.528344740648024, 99.5152489742735 9.019496659696284 M100.05760864880834 7.893275190886679 C99.87766648682403 8.266928940392601, 99.69772432483971 8.640582689898523, 99.5152489742735 9.019496659696284 M99.5152489742735 9.019496659696284 C99.32526120415756 9.356839183885004, 99.13527343404161 9.694181708073726, 98.90184637860425 10.108655082055236 M99.5152489742735 9.019496659696284 C99.3042784759573 9.394096142536176, 99.0933079776411 9.768695625376068, 98.90184637860425 10.108655082055236 M98.90184637860425 10.108655082055236 C98.75853355963656 10.328822056869884, 98.61522074066889 10.548989031684531, 98.21992146464065 11.156274872382301 M98.90184637860425 10.108655082055236 C98.75223622918172 10.338496447518523, 98.60262607975919 10.568337812981808, 98.21992146464065 11.156274872382301 M98.21992146464065 11.156274872382301 C98.04345920760976 11.392718220761374, 97.86699695057885 11.629161569140447, 97.47227640812659 12.158051136245302 M98.21992146464065 11.156274872382301 C97.944197332953 11.52572008985862, 97.66847320126533 11.895165307334938, 97.47227640812659 12.158051136245302 M97.47227640812659 12.158051136245302 C97.27858487973982 12.385572226848582, 97.08489335135306 12.613093317451863, 96.66198344296866 13.10986736009567 M97.47227640812659 12.158051136245302 C97.30535033616323 12.354131998736042, 97.13842426419986 12.55021286122678, 96.66198344296866 13.10986736009567 M96.66198344296866 13.10986736009567 C96.40771461254346 13.372420803368902, 96.15344578211827 13.634974246642134, 95.79237223676799 14.007812326905684 M96.66198344296866 13.10986736009567 C96.47849634379456 13.29933285456393, 96.29500924462047 13.48879834903219, 95.79237223676799 14.007812326905684 M95.79237223676799 14.007812326905684 C95.56819540487285 14.211403794238914, 95.3440185729777 14.414995261572143, 94.8670162085019 14.848196188198111 M95.79237223676799 14.007812326905684 C95.54958977697281 14.228300933219789, 95.30680731717763 14.448789539533893, 94.8670162085019 14.848196188198111 M94.8670162085019 14.848196188198111 C94.58266178460735 15.074961274264998, 94.2983073607128 15.301726360331884, 93.88971784457871 15.627565626425152 M94.8670162085019 14.848196188198111 C94.50616197498714 15.135967836691686, 94.14530774147238 15.42373948518526, 93.88971784457871 15.627565626425152 M93.88971784457871 15.627565626425152 C93.54468285322746 15.868247100067748, 93.19964786187619 16.108928573710344, 92.8644930736057 16.34271804539089 M93.88971784457871 15.627565626425152 C93.6228670762819 15.813709170605426, 93.3560163079851 15.999852714785698, 92.8644930736057 16.34271804539089 M92.8644930736057 16.34271804539089 C92.61072700522986 16.49655252733527, 92.35696093685402 16.65038700927965, 91.79555476407678 16.990714730406093 M92.8644930736057 16.34271804539089 C92.5873829288453 16.510703843624608, 92.31027278408492 16.67868964185833, 91.79555476407678 16.990714730406093 M91.79555476407678 16.990714730406093 C91.55906402158007 17.11409179928708, 91.32257327908334 17.23746886816807, 90.68729541279238 17.56889292409717 M91.79555476407678 16.990714730406093 C91.47569466565076 17.157585538874777, 91.15583456722473 17.324456347343464, 90.68729541279238 17.56889292409717 M90.68729541279238 17.56889292409717 C90.25045321763764 17.762270005428867, 89.81361102248292 17.955647086760564, 89.5442690951478 18.07487676824742 M90.68729541279238 17.56889292409717 C90.3636943154098 17.712141530622947, 90.04009321802722 17.855390137148724, 89.5442690951478 18.07487676824742 M89.5442690951478 18.07487676824742 C89.13756768666155 18.224546646076966, 88.73086627817531 18.37421652390651, 88.37117275146062 18.506587066708033 M89.5442690951478 18.07487676824742 C89.23972733168901 18.186950952353456, 88.93518556823021 18.299025136459495, 88.37117275146062 18.506587066708033 M88.37117275146062 18.506587066708033 C88.0941509573332 18.588805681087983, 87.81712916320578 18.67102429546793, 87.17282688623541 18.86224982926107 M88.37117275146062 18.506587066708033 C88.05556467599516 18.60025788684559, 87.73995660052968 18.693928706983147, 87.17282688623541 18.86224982926107 M87.17282688623541 18.86224982926107 C86.81608947241766 18.94367281603579, 86.4593520585999 19.02509580281051, 85.95415575967677 19.140403561325773 M87.17282688623541 18.86224982926107 C86.78064710978315 18.951762304024086, 86.3884673333309 19.041274778787102, 85.95415575967677 19.140403561325773 M85.95415575967677 19.140403561325773 C85.60914791080297 19.19618175475586, 85.26414006192918 19.251959948185945, 84.72016715284788 19.3399052695533 M85.95415575967677 19.140403561325773 C85.65378709889572 19.1889648370071, 85.35341843811467 19.237526112688425, 84.72016715284788 19.3399052695533 M84.72016715284788 19.3399052695533 C84.44909599950768 19.366055177705267, 84.17802484616749 19.39220508585724, 83.4759317896239 19.45993515863156 M84.72016715284788 19.3399052695533 C84.2844961518739 19.38193392704622, 83.84882515089991 19.423962584539144, 83.4759317896239 19.45993515863156 M83.4759317896239 19.45993515863156 C83.07255618378693 19.472870629187764, 82.66918057794996 19.485806099743968, 82.2265625 19.5 M83.4759317896239 19.45993515863156 C83.03863086191916 19.47395854822843, 82.60132993421442 19.487981937825303, 82.2265625 19.5 M82.2265625 19.5 C82.2265625 19.5, 82.2265625 19.5, 82.2265625 19.5 M82.2265625 19.5 C82.2265625 19.5, 82.2265625 19.5, 82.2265625 19.5 M82.2265625 19.5 C48.620482713054585 19.5, 15.01440292610917 19.5, -82.2265625 19.5 M82.2265625 19.5 C47.815956343417064 19.5, 13.405350186834127 19.5, -82.2265625 19.5 M-82.2265625 19.5 C-82.668146519011 19.48583926000147, -83.10973053802199 19.471678520002936, -83.4759317896239 19.45993515863156 M-82.2265625 19.5 C-82.60116520429472 19.4879872203932, -82.97576790858945 19.4759744407864, -83.4759317896239 19.45993515863156 M-83.4759317896239 19.45993515863156 C-83.80631834265054 19.428063165209043, -84.13670489567718 19.396191171786526, -84.72016715284786 19.3399052695533 M-83.4759317896239 19.45993515863156 C-83.80764350218196 19.427935328662784, -84.13935521474001 19.395935498694012, -84.72016715284786 19.3399052695533 M-84.72016715284786 19.3399052695533 C-84.96894576694004 19.299684672533843, -85.21772438103221 19.259464075514384, -85.95415575967675 19.140403561325773 M-84.72016715284786 19.3399052695533 C-85.1247284794739 19.274498931684345, -85.52928980609994 19.20909259381539, -85.95415575967675 19.140403561325773 M-85.95415575967675 19.140403561325773 C-86.28520981231709 19.064842634140202, -86.61626386495743 18.989281706954632, -87.17282688623538 18.862249829261074 M-85.95415575967675 19.140403561325773 C-86.24395382225842 19.0742590446506, -86.53375188484007 19.00811452797543, -87.17282688623538 18.862249829261074 M-87.17282688623538 18.862249829261074 C-87.48814827695239 18.768664095652024, -87.8034696676694 18.67507836204297, -88.37117275146059 18.506587066708043 M-87.17282688623538 18.862249829261074 C-87.47812491347435 18.7716389773186, -87.78342294071331 18.681028125376123, -88.37117275146059 18.506587066708043 M-88.37117275146059 18.506587066708043 C-88.69062539243689 18.389025541840926, -89.01007803341318 18.271464016973805, -89.5442690951478 18.074876768247425 M-88.37117275146059 18.506587066708043 C-88.79710245029517 18.34984100028594, -89.22303214912976 18.19309493386384, -89.5442690951478 18.074876768247425 M-89.5442690951478 18.074876768247425 C-89.90880291053884 17.913508461685236, -90.2733367259299 17.752140155123048, -90.68729541279238 17.568892924097174 M-89.5442690951478 18.074876768247425 C-89.81258462118254 17.956101444169132, -90.08090014721726 17.83732612009084, -90.68729541279238 17.568892924097174 M-90.68729541279238 17.568892924097174 C-90.98153412728271 17.415388775216456, -91.27577284177306 17.261884626335736, -91.79555476407678 16.990714730406097 M-90.68729541279238 17.568892924097174 C-91.01432429431505 17.3982821660788, -91.3413531758377 17.227671408060424, -91.79555476407678 16.990714730406097 M-91.79555476407678 16.990714730406097 C-92.1773303425541 16.75928013117081, -92.55910592103143 16.52784553193553, -92.86449307360569 16.3427180453909 M-91.79555476407678 16.990714730406097 C-92.0248385933707 16.851721525666782, -92.25412242266461 16.71272832092747, -92.86449307360569 16.3427180453909 M-92.86449307360569 16.3427180453909 C-93.12090070759366 16.16385917962847, -93.37730834158162 15.985000313866044, -93.88971784457871 15.627565626425156 M-92.86449307360569 16.3427180453909 C-93.16838815031794 16.130733995282277, -93.47228322703019 15.918749945173653, -93.88971784457871 15.627565626425156 M-93.88971784457871 15.627565626425156 C-94.2690813770585 15.325033304560103, -94.64844490953827 15.02250098269505, -94.86701620850187 14.848196188198125 M-93.88971784457871 15.627565626425156 C-94.21389965059153 15.369039262970091, -94.53808145660436 15.110512899515026, -94.86701620850187 14.848196188198125 M-94.86701620850187 14.848196188198125 C-95.21624827314713 14.531032867261384, -95.56548033779238 14.213869546324645, -95.79237223676797 14.007812326905697 M-94.86701620850187 14.848196188198125 C-95.12661008475966 14.612439898258376, -95.38620396101747 14.37668360831863, -95.79237223676797 14.007812326905697 M-95.79237223676797 14.007812326905697 C-96.12104480995066 13.668430910574475, -96.44971738313333 13.329049494243254, -96.66198344296865 13.109867360095677 M-95.79237223676797 14.007812326905697 C-95.98064184191033 13.81340850237417, -96.16891144705268 13.619004677842643, -96.66198344296865 13.109867360095677 M-96.66198344296865 13.109867360095677 C-96.87523599149371 12.859368782184369, -97.08848854001879 12.608870204273062, -97.47227640812658 12.158051136245307 M-96.66198344296865 13.109867360095677 C-96.85523827997594 12.882859232035175, -97.04849311698322 12.65585110397467, -97.47227640812658 12.158051136245307 M-97.47227640812658 12.158051136245307 C-97.67562476686669 11.885582860950139, -97.8789731256068 11.61311458565497, -98.21992146464063 11.156274872382316 M-97.47227640812658 12.158051136245307 C-97.62453061106388 11.954044374952566, -97.77678481400116 11.750037613659824, -98.21992146464063 11.156274872382316 M-98.21992146464063 11.156274872382316 C-98.43971209578943 10.818617440889446, -98.65950272693821 10.480960009396577, -98.90184637860425 10.108655082055249 M-98.21992146464063 11.156274872382316 C-98.46676149790264 10.777062295462057, -98.71360153116464 10.3978497185418, -98.90184637860425 10.108655082055249 M-98.90184637860425 10.108655082055249 C-99.11481516497211 9.730507436431008, -99.32778395133998 9.35235979080677, -99.5152489742735 9.019496659696289 M-98.90184637860425 10.108655082055249 C-99.13543396101868 9.693896676170825, -99.36902154343312 9.279138270286401, -99.5152489742735 9.019496659696289 M-99.5152489742735 9.019496659696289 C-99.65019113908002 8.739286367175774, -99.78513330388652 8.459076074655261, -100.05760864880834 7.893275190886686 M-99.5152489742735 9.019496659696289 C-99.67362040785187 8.690634989264977, -99.83199184143024 8.361773318833663, -100.05760864880834 7.893275190886686 M-100.05760864880834 7.893275190886686 C-100.21594808199897 7.5021737296211315, -100.37428751518961 7.111072268355576, -100.52669672997033 6.73461856121551 M-100.05760864880834 7.893275190886686 C-100.1945845928714 7.554941960801235, -100.33156053693443 7.216608730715784, -100.52669672997033 6.73461856121551 M-100.52669672997033 6.73461856121551 C-100.65692393918546 6.3423949559475705, -100.7871511484006 5.95017135067963, -100.92058563421489 5.5482879393051325 M-100.52669672997033 6.73461856121551 C-100.6297823461356 6.424141109788163, -100.73286796230087 6.113663658360816, -100.92058563421489 5.5482879393051325 M-100.92058563421489 5.5482879393051325 C-101.01655004359895 5.182334055085581, -101.112514452983 4.81638017086603, -101.23765678754556 4.339158212148136 M-100.92058563421489 5.5482879393051325 C-101.01597011745353 5.1845455648196195, -101.11135460069218 4.820803190334106, -101.23765678754556 4.339158212148136 M-101.23765678754556 4.339158212148136 C-101.30412130085938 3.99787698356155, -101.3705858141732 3.6565957549749646, -101.47660727658177 3.112197953150904 M-101.23765678754556 4.339158212148136 C-101.30396992655606 3.9986542586161207, -101.37028306556655 3.6581503050841055, -101.47660727658177 3.112197953150904 M-101.47660727658177 3.112197953150904 C-101.53612438716989 2.650594996412301, -101.59564149775801 2.188992039673698, -101.63645520250937 1.872449005199809 M-101.47660727658177 3.112197953150904 C-101.52356773878073 2.7479818817280393, -101.57052820097967 2.383765810305174, -101.63645520250937 1.872449005199809 M-101.63645520250937 1.872449005199809 C-101.65577504032518 1.571526936526142, -101.675094878141 1.2706048678524748, -101.71654371591342 0.6250057626472781 M-101.63645520250937 1.872449005199809 C-101.66814523134953 1.378851226283356, -101.6998352601897 0.8852534473669034, -101.71654371591342 0.6250057626472781 M-101.71654371591342 0.6250057626472781 C-101.71654371591342 0.20098063645890168, -101.71654371591342 -0.22304448972947477, -101.71654371591342 -0.6250057626472687 M-101.71654371591342 0.6250057626472781 C-101.71654371591342 0.15467237325148092, -101.71654371591342 -0.3156610161443163, -101.71654371591342 -0.6250057626472687 M-101.71654371591342 -0.6250057626472687 C-101.68746411437733 -1.0779440292036688, -101.65838451284125 -1.530882295760069, -101.63645520250937 -1.8724490051997822 M-101.71654371591342 -0.6250057626472687 C-101.69635726790686 -0.9394259845569546, -101.6761708199003 -1.2538462064666405, -101.63645520250937 -1.8724490051997822 M-101.63645520250937 -1.8724490051997822 C-101.57823504215217 -2.323993072059155, -101.52001488179498 -2.775537138918528, -101.47660727658177 -3.112197953150895 M-101.63645520250937 -1.8724490051997822 C-101.58609287579186 -2.263049266054495, -101.53573054907434 -2.6536495269092075, -101.47660727658177 -3.112197953150895 M-101.47660727658177 -3.112197953150895 C-101.41321691394484 -3.437694067733713, -101.34982655130788 -3.76319018231653, -101.23765678754556 -4.339158212148126 M-101.47660727658177 -3.112197953150895 C-101.42022439566583 -3.4017121301281996, -101.36384151474988 -3.691226307105504, -101.23765678754556 -4.339158212148126 M-101.23765678754556 -4.339158212148126 C-101.16234327227546 -4.626361286957012, -101.08702975700537 -4.913564361765898, -100.92058563421489 -5.548287939305123 M-101.23765678754556 -4.339158212148126 C-101.11925736590871 -4.790666521483371, -101.00085794427187 -5.242174830818615, -100.92058563421489 -5.548287939305123 M-100.92058563421489 -5.548287939305123 C-100.82815743549867 -5.826666947404806, -100.73572923678245 -6.105045955504488, -100.52669672997033 -6.734618561215485 M-100.92058563421489 -5.548287939305123 C-100.80310341462845 -5.902125666449734, -100.68562119504203 -6.255963393594345, -100.52669672997033 -6.734618561215485 M-100.52669672997033 -6.734618561215485 C-100.36862150268723 -7.125067428781326, -100.21054627540416 -7.515516296347165, -100.05760864880834 -7.893275190886676 M-100.52669672997033 -6.734618561215485 C-100.37949271216887 -7.09821533118116, -100.23228869436741 -7.461812101146837, -100.05760864880834 -7.893275190886676 M-100.05760864880834 -7.893275190886676 C-99.88198155150532 -8.257968616254285, -99.70635445420231 -8.622662041621894, -99.5152489742735 -9.019496659696282 M-100.05760864880834 -7.893275190886676 C-99.85602891825806 -8.311859814489607, -99.6544491877078 -8.730444438092537, -99.5152489742735 -9.019496659696282 M-99.5152489742735 -9.019496659696282 C-99.2766701147677 -9.443117583478056, -99.03809125526189 -9.86673850725983, -98.90184637860425 -10.108655082055243 M-99.5152489742735 -9.019496659696282 C-99.32111235848011 -9.36420587950151, -99.1269757426867 -9.708915099306738, -98.90184637860425 -10.108655082055243 M-98.90184637860425 -10.108655082055243 C-98.727274543808 -10.376844299403611, -98.55270270901175 -10.645033516751981, -98.21992146464063 -11.156274872382308 M-98.90184637860425 -10.108655082055243 C-98.65136196623729 -10.493466403933523, -98.40087755387033 -10.8782777258118, -98.21992146464063 -11.156274872382308 M-98.21992146464063 -11.156274872382308 C-97.93963603025936 -11.531831819924843, -97.65935059587811 -11.907388767467378, -97.47227640812659 -12.158051136245302 M-98.21992146464063 -11.156274872382308 C-98.00810141901638 -11.440094436315672, -97.79628137339213 -11.723914000249037, -97.47227640812659 -12.158051136245302 M-97.47227640812659 -12.158051136245302 C-97.17863861250888 -12.502974799441768, -96.88500081689116 -12.847898462638234, -96.66198344296866 -13.10986736009567 M-97.47227640812659 -12.158051136245302 C-97.16922322153603 -12.514034653429398, -96.86617003494547 -12.870018170613497, -96.66198344296866 -13.10986736009567 M-96.66198344296866 -13.10986736009567 C-96.42053125714361 -13.359186565553166, -96.17907907131854 -13.608505771010662, -95.79237223676799 -14.007812326905677 M-96.66198344296866 -13.10986736009567 C-96.41457207537024 -13.365339909992088, -96.16716070777181 -13.620812459888503, -95.79237223676799 -14.007812326905677 M-95.79237223676799 -14.007812326905677 C-95.4254247296243 -14.341064343994576, -95.0584772224806 -14.674316361083473, -94.8670162085019 -14.848196188198107 M-95.79237223676799 -14.007812326905677 C-95.60209766924301 -14.180614654742689, -95.41182310171803 -14.353416982579702, -94.8670162085019 -14.848196188198107 M-94.8670162085019 -14.848196188198107 C-94.50435732526554 -15.1374069968209, -94.14169844202921 -15.426617805443692, -93.88971784457871 -15.627565626425149 M-94.8670162085019 -14.848196188198107 C-94.57825980979497 -15.078471732036396, -94.28950341108805 -15.308747275874683, -93.88971784457871 -15.627565626425149 M-93.88971784457871 -15.627565626425149 C-93.64020200037682 -15.801617077973589, -93.39068615617491 -15.97566852952203, -92.86449307360571 -16.342718045390885 M-93.88971784457871 -15.627565626425149 C-93.6724951810648 -15.779090753074906, -93.4552725175509 -15.930615879724662, -92.86449307360571 -16.342718045390885 M-92.86449307360571 -16.342718045390885 C-92.64646506472637 -16.47488790564834, -92.42843705584704 -16.607057765905793, -91.79555476407678 -16.99071473040609 M-92.86449307360571 -16.342718045390885 C-92.48432328394256 -16.573179206010355, -92.1041534942794 -16.80364036662983, -91.79555476407678 -16.99071473040609 M-91.79555476407678 -16.99071473040609 C-91.5325509830927 -17.127923634483526, -91.26954720210861 -17.265132538560962, -90.6872954127924 -17.56889292409717 M-91.79555476407678 -16.99071473040609 C-91.5276571816068 -17.130476727584092, -91.25975959913681 -17.270238724762095, -90.6872954127924 -17.56889292409717 M-90.6872954127924 -17.56889292409717 C-90.35993339949943 -17.71380637653287, -90.03257138620647 -17.858719828968564, -89.54426909514781 -18.07487676824742 M-90.6872954127924 -17.56889292409717 C-90.29010793221921 -17.744716039598927, -89.89292045164603 -17.92053915510068, -89.54426909514781 -18.07487676824742 M-89.54426909514781 -18.07487676824742 C-89.09677204755137 -18.239559818380275, -88.64927499995491 -18.40424286851313, -88.37117275146062 -18.506587066708033 M-89.54426909514781 -18.07487676824742 C-89.29712959940338 -18.165826387213826, -89.04999010365894 -18.25677600618023, -88.37117275146062 -18.506587066708033 M-88.37117275146062 -18.506587066708033 C-88.12745453994711 -18.578921352582245, -87.88373632843359 -18.65125563845646, -87.17282688623541 -18.862249829261067 M-88.37117275146062 -18.506587066708033 C-88.00677174486057 -18.614739372687012, -87.64237073826051 -18.72289167866599, -87.17282688623541 -18.862249829261067 M-87.17282688623541 -18.862249829261067 C-86.75981179573361 -18.95651782849276, -86.34679670523182 -19.050785827724454, -85.95415575967677 -19.140403561325773 M-87.17282688623541 -18.862249829261067 C-86.71784973390717 -18.966095395276604, -86.26287258157893 -19.069940961292136, -85.95415575967677 -19.140403561325773 M-85.95415575967677 -19.140403561325773 C-85.6249740256646 -19.193623111238384, -85.29579229165245 -19.246842661151, -84.72016715284788 -19.3399052695533 M-85.95415575967677 -19.140403561325773 C-85.48205657946669 -19.21672889559832, -85.00995739925659 -19.29305422987086, -84.72016715284788 -19.3399052695533 M-84.72016715284788 -19.3399052695533 C-84.34497430333758 -19.376099672510136, -83.9697814538273 -19.412294075466974, -83.4759317896239 -19.45993515863156 M-84.72016715284788 -19.3399052695533 C-84.26269097864345 -19.384037445883205, -83.80521480443903 -19.428169622213108, -83.4759317896239 -19.45993515863156 M-83.4759317896239 -19.45993515863156 C-83.11747880090982 -19.471430048293204, -82.75902581219573 -19.48292493795485, -82.2265625 -19.5 M-83.4759317896239 -19.45993515863156 C-83.16993134358314 -19.46974799734235, -82.8639308975424 -19.479560836053142, -82.2265625 -19.5 M-82.2265625 -19.5 C-82.2265625 -19.5, -82.2265625 -19.5, -82.2265625 -19.5 M-82.2265625 -19.5 C-82.2265625 -19.5, -82.2265625 -19.5, -82.2265625 -19.5" stroke="#3D5A7A" stroke-width="1.3" fill="none" stroke-dasharray="0 0" style=""/></g><g class="label" style="" transform="translate(-89.3515625, -12)"><rect/><foreignObject width="178.703125" height="24"><div xmlns="http://www.w3.org/1999/xhtml" style="display: table-cell; white-space: nowrap; line-height: 1.5; max-width: 200px; text-align: center;"><span class="nodeLabel"><p>Visitor lands on /content</p></span></div></foreignObject></g></g><g class="node default tier2" id="flowchart-Search-11" transform="translate(103.1640625, 419)"><rect class="basic label-container" style="fill:#F5F0E8 !important;stroke:#A67B3D !important" x="-95.1640625" y="-39" width="190.328125" height="78"/><g class="label" style="color:#1A1816 !important" transform="translate(-65.1640625, -24)"><rect/><foreignObject width="130.328125" height="48"><div style="color: rgb(26, 24, 22) !important; display: table-cell; white-space: nowrap; line-height: 1.5; max-width: 200px; text-align: center;" xmlns="http://www.w3.org/1999/xhtml"><span style="color:#1A1816 !important" class="nodeLabel"><p>Search box<br />title + body + tags</p></span></div></foreignObject></g></g><g class="node default cms" id="flowchart-Sanity-12" transform="translate(345.671875, 1069.983268737793)"><path d="M0,15.655515581927768 a104.7109375,15.655515581927768 0,0,0 209.421875,0 a104.7109375,15.655515581927768 0,0,0 -209.421875,0 l0,126.65551558192777 a104.7109375,15.655515581927768 0,0,0 209.421875,0 l0,-126.65551558192777" class="basic label-container" style="fill:#FFFFFF !important;stroke:#4A6B52 !important" transform="translate(-104.7109375, -78.98327337289166)"/><g class="label" style="color:#1A1816 !important" transform="translate(-97.2109375, -38)"><rect/><foreignObject width="194.421875" height="96"><div style="color: rgb(26, 24, 22) !important; display: table-cell; white-space: nowrap; line-height: 1.5; max-width: 200px; text-align: center;" xmlns="http://www.w3.org/1999/xhtml"><span style="color:#1A1816 !important" class="nodeLabel"><p>Sanity articles<br />phase + buyerTypes<br />property_types · use_cases<br />area</p></span></div></foreignObject></g></g><g class="node default out" id="flowchart-Result-13" transform="translate(345.671875, 878)"><rect class="basic label-container" style="fill:#3D5A7A !important;stroke:#2C4562 !important" x="-100.4375" y="-39" width="200.875" height="78"/><g class="label" style="color:#FAFAF7 !important" transform="translate(-70.4375, -24)"><rect/><foreignObject width="140.875" height="48"><div style="color: rgb(250, 250, 247) !important; display: table-cell; white-space: nowrap; line-height: 1.5; max-width: 200px; text-align: center;" xmlns="http://www.w3.org/1999/xhtml"><span style="color:#FAFAF7 !important" class="nodeLabel"><p>Filtered article grid<br />RSC + ISR cached</p></span></div></foreignObject></g></g></g></g></g></svg>